<svg xmlns="http://www.w3.org/2000/svg" viewBox="0 0 354.62 150"><defs><style>.cls-1{fill:#fff;}</style></defs><title>logo-w</title><g id="Camada_2" data-name="Camada 2"><g id="Camada_1-2" data-name="Camada 1"><path class="cls-1" d="M52,68.16V14c0-.26,0-.51,0-.77s.15-.57.54-.57l6.57.11c.4,0,.55.33.73.59q3.66,5.26,7.3,10.54l23.4,33.81a1.33,1.33,0,0,0,.51.56V13.92c0-1.15,0-1.15,1.16-1.15,2.5,0,5,0,7.49,0,.64,0,.84.19.84.84q0,31.88,0,63.75c0,.61-.18.83-.79.82q-3-.06-5.89,0a1.51,1.51,0,0,1-1.43-.75Q87.74,70.52,83,63.64L62,33.28c-.07-.11-.16-.22-.34-.46V77c0,1.13,0,1.13-1.15,1.13-4.6,0-9.21,0-13.81,0a1.3,1.3,0,0,1-1.42-1C42.85,71.35,40.4,65.51,38,59.66a1,1,0,0,0-1.14-.75q-10.83,0-21.65,0a1.06,1.06,0,0,0-1.14.76c-2.48,5.89-4.93,11.8-7.22,17.78-.08.2-.07.52-.35.54s-.31-.25-.43-.42C4.11,74.83,2.17,72.08.22,69.35a1,1,0,0,1-.11-1.1q6.5-16.44,13-32.9,2.84-7.2,5.67-14.4a1.58,1.58,0,0,0,0-1.28Q17.35,16.31,16,12.93c-.4-1-.4-1,.64-1,4,0,8,0,12,0a1.23,1.23,0,0,1,1.36.95q8.78,22.22,17.6,44.4l4.07,10.29c.08.21.17.42.26.64Zm-25.86-41c-.12.3-.18.42-.23.55q-3.9,10.83-7.81,21.66c-.22.61,0,.65.51.65,4.81,0,9.61,0,14.42,0,.87,0,.88,0,.6-.84q-2.73-8.06-5.47-16.1C27.55,31.18,26.89,29.26,26.18,27.19Z"/><path class="cls-1" d="M170.65,45.36V77.08c0,1.07,0,1.07-1.08,1.07h-7.35c-1.05,0-1.05,0-1.05-1V28.35c0-4.9,0-9.81,0-14.71,0-.59.12-.88.81-.88,8,0,16.07-.07,24.1.05,9.19.13,16.6,5.6,19.23,14.1a2.55,2.55,0,0,0,.19.33V13.89c0-1,0-1,1-1h37.9c1,0,1,0,1,1v7.56c0,1,0,1-1,1h-28c-1.1,0-1.1,0-1.1,1.12V39.72c0,.93,0,.93.92.93h27.54c1.1,0,1.1,0,1.1,1.13v7.56c0,.93,0,.94-.95.94h-27.6c-1,0-1,0-1,1,0,5.46,0,10.93,0,16.39,0,.71.19.91.9.91q14.16,0,28.31,0c1.07,0,1.07,0,1.07,1.09,0,2.54,0,5.09,0,7.64,0,.64-.16.9-.86.9q-23.12,0-46.24,0a1.22,1.22,0,0,1-1.07-.5Q187.15,65.24,177,52.84l-5.82-7.09A.85.85,0,0,0,170.65,45.36Zm0-11.69c0,3.48,0,7,0,10.43,0,.56.14.79.74.79,4.79,0,9.57,0,14.35,0a10.93,10.93,0,0,0,10.92-12.45,10.73,10.73,0,0,0-10.81-9.89c-4.81-.07-9.62,0-14.43,0-.64,0-.77.24-.77.83C170.66,26.76,170.65,30.22,170.65,33.67Zm34.8,6.48a20.93,20.93,0,0,1-4.47,7.5,20,20,0,0,1-10.64,5.83c-.73.16-.74.17-.25.76l14.37,17.1a4.19,4.19,0,0,0,1,1Z"/><path class="cls-1" d="M150.75,141.23v1.25c0,2.05,0,4.11,0,6.16,0,.59-.15.84-.78.84q-16.26,0-32.51,0a1.16,1.16,0,0,1-1-.56q-2.84-4-5.7-8.06a1.92,1.92,0,0,1-.29-1.2V123.13q0-15.16,0-30.34a2.35,2.35,0,0,0-.57-1.65c-1.77-2.1-3.49-4.25-5.23-6.39-.13-.16-.39-.31-.3-.52s.42-.13.63-.13h14c1,0,1,0,1,1v43.93c0,3.32,0,6.63,0,9.95,0,.71.22.91.93.91,9.38,0,18.77,0,28.16,0,.22,0,.53.12.65-.1s-.15-.41-.27-.6a15.55,15.55,0,0,1-2.47-8c-.25-11.33-.05-22.65-.11-34,0-1.64,0-3.27,0-4.91a2.08,2.08,0,0,0-.53-1.46c-1.71-2-3.4-4-5.08-6.07-.14-.17-.41-.33-.29-.58s.38-.12.58-.12c4.83,0,9.67,0,14.5,0,.58,0,.79.2.78.77,0,1.47,0,2.94,0,4.42,0,13.42,0,26.85,0,40.28a9.31,9.31,0,0,0,4.25,8,16.42,16.42,0,0,0,8.09,2.86,18.38,18.38,0,0,0,10.89-2.11,10.52,10.52,0,0,0,5.08-5.39,8.32,8.32,0,0,0,.54-3.09q0-22.31,0-44.63c0-1.15,0-1.15,1.14-1.15,2.54,0,5.09,0,7.63,0,.63,0,.86.18.86.83,0,15.22,0,30.45,0,45.68,0,6.06-2.95,10.74-7.71,14.32a26.11,26.11,0,0,1-12.88,4.86,29,29,0,0,1-16-2.54,21,21,0,0,1-7.42-5.62C151.12,141.47,151.05,141.29,150.75,141.23Z"/><path class="cls-1" d="M105.15,45.51V14.05c0-1.15,0-1.15,1.16-1.15,8,0,15.92-.05,23.89,0a30.21,30.21,0,0,1,29.07,22.13,36.1,36.1,0,0,1,1.51,11.54c-.3,7.57-2.4,14.54-7.28,20.47a29.56,29.56,0,0,1-19,10.68,45.81,45.81,0,0,1-6.83.42H106.13c-1,0-1,0-1-1V45.51Zm9.59,0V67.57c0,1,0,1,.94,1h11.7a34.39,34.39,0,0,0,5.17-.27,20.57,20.57,0,0,0,15.2-9.91,24.37,24.37,0,0,0,2.47-20,21.24,21.24,0,0,0-20.55-15.81c-4.67-.07-9.35,0-14,0-.91,0-.91,0-.91.94Z"/><path class="cls-1" d="M227.82,149.79a30.2,30.2,0,0,1-22.62-9.74A33.14,33.14,0,0,1,196.1,121a33.69,33.69,0,0,1,16.53-33.33,30.08,30.08,0,0,1,12.68-3.85,31.76,31.76,0,0,1,15.78,2.64,29.61,29.61,0,0,1,14.36,13.9c.31.6.58,1.22.88,1.83a.51.51,0,0,1-.22.76c-2.3,1.51-4.6,3-6.9,4.55-.49.32-.59,0-.73-.35a23,23,0,0,0-2.92-5.49,20.26,20.26,0,0,0-13.25-8A21.33,21.33,0,0,0,219,95.09a23.94,23.94,0,0,0-7.19,38.14,21,21,0,0,0,13.05,6.87c10.1,1.28,20-3.59,24.06-14,.56-1.47.19-1.3,1.92-1.31h7.08c.85,0,.89,0,.65.89-2.58,9.21-7.8,16.36-16.4,20.81a29.8,29.8,0,0,1-11,3.19C230.06,149.75,228.94,149.75,227.82,149.79Z"/><path class="cls-1" d="M279.28,83.12c2,0,4,0,6,0a1.12,1.12,0,0,1,1.23.84q7.74,19.61,15.52,39.19,5,12.66,10,25.33c.35.87.34.88-.6.88-2.78,0-5.55,0-8.33,0a1.14,1.14,0,0,1-1.25-.82c-2.42-5.9-4.88-11.77-7.31-17.66a1.06,1.06,0,0,0-1.13-.78q-10.83,0-21.65,0a1.06,1.06,0,0,0-1.15.75c-2.48,5.89-4.92,11.8-7.22,17.77-.08.21-.08.53-.35.56s-.35-.28-.48-.46c-1.9-2.68-3.79-5.38-5.71-8.05a1.25,1.25,0,0,1-.15-1.36q8.39-21.23,16.74-42.47c.6-1.52,1.18-3,1.8-4.56a1.84,1.84,0,0,0,0-1.54c-.92-2.22-1.81-4.45-2.71-6.68-.37-.92-.35-.94.61-.94Zm3.5,15.22c-.34,1-.62,1.72-.9,2.49q-3.53,9.81-7.07,19.62c-.27.74-.24.78.56.78h14.42c.75,0,.77,0,.53-.75l-3.75-11Z"/><path class="cls-1" d="M329.05,149.9a26,26,0,0,1-16.66-6.61,17.61,17.61,0,0,1-3.92-5.07.73.73,0,0,1,.23-1.07q3.56-2.85,7.07-5.74c.39-.33.62-.37.72.21.55,3.19,2.63,5.17,5.3,6.65a17.41,17.41,0,0,0,7.29,2A17.74,17.74,0,0,0,340,137.77a10.33,10.33,0,0,0,4.35-4.88,8.28,8.28,0,0,0,.07-5.9,6,6,0,0,0-3.16-3.31,18.84,18.84,0,0,0-6.36-1.8c-4.28-.58-8.59-.88-12.81-1.83a21.66,21.66,0,0,1-9.57-4.42,14.34,14.34,0,0,1-5-8.46,19,19,0,0,1,.82-11.07,19.32,19.32,0,0,1,10.33-10.26,27.57,27.57,0,0,1,10.43-2.46,25.91,25.91,0,0,1,15.32,3.74,18.32,18.32,0,0,1,5.22,5c.29.42.33.7-.1,1.05-2.15,1.76-4.28,3.55-6.42,5.33-.27.22-.5.44-.76,0a10.14,10.14,0,0,0-5.88-4.69,18.14,18.14,0,0,0-15.46,1.44,8.41,8.41,0,0,0-4,9.93,6.77,6.77,0,0,0,4.06,4.43,21.29,21.29,0,0,0,6.83,1.7,88.36,88.36,0,0,1,12.41,2.1,23.59,23.59,0,0,1,8.16,3.75,14.24,14.24,0,0,1,5.77,9.27A17.34,17.34,0,0,1,351,140.68a22.67,22.67,0,0,1-8.33,6.48A31.18,31.18,0,0,1,329.05,149.9Z"/><path class="cls-1" d="M233.38,0h5.67c.22,0,.52-.11.63.15s-.19.35-.33.48l-9.44,9a1.91,1.91,0,0,1-1.44.57c-2.45,0-4.9,0-7.35,0-.22,0-.51.11-.64-.15s.13-.42.25-.61q3-4.44,6-8.89a1.06,1.06,0,0,1,1-.51C229.59,0,231.48,0,233.38,0Z"/></g></g></svg>