<?xml version="1.0" standalone="no"?>
<!DOCTYPE svg PUBLIC "-//W3C//DTD SVG 20010904//EN"
 "http://www.w3.org/TR/2001/REC-SVG-20010904/DTD/svg10.dtd">
<svg version="1.0" xmlns="http://www.w3.org/2000/svg"
 width="800.000000pt" height="800.000000pt" viewBox="0 0 800.000000 800.000000"
 preserveAspectRatio="xMidYMid meet">
<metadata>
Created by potrace 1.11, written by Peter Selinger 2001-2013
</metadata>
<g transform="translate(0.000000,800.000000) scale(0.100000,-0.100000)"
fill="#000000" stroke="none">
<path d="M30 4000 l0 -4001 2533 4 c1392 2 2550 7 2572 10 22 4 69 12 105 17
36 5 74 12 85 14 11 2 40 7 65 11 72 12 234 53 338 87 916 292 1664 1010 2015
1933 81 214 149 480 176 690 6 44 14 100 18 125 4 25 8 1185 10 2578 l3 2532
-3960 0 -3960 0 0 -4000z m3054 2071 c3 -9 32 -110 66 -226 34 -115 70 -239
80 -275 11 -36 31 -103 45 -150 15 -47 28 -94 31 -106 4 -19 52 -185 91 -314
9 -30 18 -59 19 -65 1 -5 88 -305 194 -665 105 -360 200 -684 209 -720 15 -54
98 -339 117 -402 11 -36 31 -17 47 45 9 34 196 690 415 1457 220 767 401 1404
404 1415 3 20 12 20 746 21 408 0 743 -2 743 -5 1 -3 2 -932 3 -2063 2 -1842
0 -2057 -14 -2060 -8 -2 -242 -3 -520 -3 l-505 1 0 985 c1 875 4 1074 20 1304
9 131 18 262 20 305 1 25 5 110 10 190 10 201 11 190 -9 170 -7 -8 -50 -148
-96 -310 -45 -162 -104 -371 -130 -465 -26 -93 -76 -269 -109 -390 -34 -121
-70 -249 -81 -285 -18 -60 -61 -213 -175 -620 -240 -855 -246 -874 -255 -880
-10 -6 -1048 -5 -1054 1 -4 3 -460 1590 -471 1639 -2 8 -29 103 -60 210 -31
107 -58 202 -60 210 -4 16 -204 714 -236 823 -12 39 -25 67 -33 67 -14 0 -14
-4 -2 -145 3 -33 8 -94 11 -135 4 -41 8 -95 11 -120 2 -25 6 -85 10 -134 3
-49 7 -103 9 -120 15 -109 19 -427 20 -1305 l0 -995 -485 -1 c-267 0 -492 2
-500 6 -13 6 -15 243 -13 2051 0 1123 2 2050 2 2059 1 14 76 15 741 15 663 0
740 -1 744 -15z"/>
</g>
</svg>
