<svg xmlns="http://www.w3.org/2000/svg" viewBox="0 0 95.12 100"><defs><style>.cls-1{fill:#fff;}</style></defs><title>la-brasil</title><g id="Camada_2" data-name="Camada 2"><g id="Camada_1-2" data-name="Camada 1"><path class="cls-1" d="M3.75,7.65a1.17,1.17,0,0,0,1.64.5,9.82,9.82,0,0,1,6.55,0,1.35,1.35,0,0,0,1.76-.52c1-1.2,1.5-3,3.36-3.4.1,0,.08-.55.12-.84a2.67,2.67,0,0,0-1-.09c-1.17.36-2.32.8-3.48,1.2l-.44-.44c.12-1.07.28-2.13.35-3.2,0-.28-.25-.57-.39-.86h-.57c-.31,1.78-1.71,2.66-3.24,3.92C7.47,2.57,6.57,1.28,5.66,0H5.09a4.4,4.4,0,0,0-.23,1.05c0,1,.12,2.09.19,3.14l-.48.35C3.4,4.1,2.23,3.64,1.05,3.23a1.19,1.19,0,0,0-.79,0A.65.65,0,0,0,0,3.81a1.42,1.42,0,0,0,.53.56A10,10,0,0,1,2,5.4,17.23,17.23,0,0,1,3.75,7.65Z"/><path class="cls-1" d="M4.61,87.46v.29H95.12v-.29Z"/><path class="cls-1" d="M60.53,97.71a2.93,2.93,0,0,1-.2-2.33c.67-1.51,2.08-1.19,3.62-.69-1.56-1.19-2.83-1.1-3.81.07a2.58,2.58,0,0,0,.26,3.57A12.1,12.1,0,0,1,61.51,100h.28L64,98C62.51,98.65,61.27,98.93,60.53,97.71Z"/><path class="cls-1" d="M93,94.67c.31-.1.62-.23.94-.3a2.18,2.18,0,0,1,.65.13c-.7-.89-1.34-.93-1.87-.2s-.17,1.34.57,1.74c.29.15.74.25.83.49a7.27,7.27,0,0,1,.32,1.62,9.65,9.65,0,0,1-1.61,0c-.15,0-.26-.42-.39-.64.35,1.71,1,1.83,2.65.74V96.87a18.61,18.61,0,0,1-1.67-1.25A2.59,2.59,0,0,1,93,94.67Z"/><path class="cls-1" d="M59,59.7c-3.35-.13-4.36-1.42-3.2-4.51s2.62-6.29,3.89-9.46a1.52,1.52,0,0,1,1.7-1.07c5.13,0,10.25.06,15.38,0A1.68,1.68,0,0,1,78.6,46q2.69,6.79,5.5,13.56c.19.47.73,1.1,1.13,1.12,2.41.11,4.82,0,7.47,0-7-16.64-13.88-33.1-20.78-49.57h-.4c-.22.44-.46.88-.66,1.33Q64.63,26.7,58.4,41C56.18,46,54,51.11,51.7,56.17c-.81,1.8-2,3.23-4.17,3.45-.25,0-.46.51-.86,1H60.44C60.53,59.25,59.55,59.72,59,59.7ZM69.32,23.5C72,29.84,74.47,35.86,77,42H61.36Z"/><path class="cls-1" d="M8,17.1c.07.95.11,1.9.11,2.84q0,19.44,0,38.87v1.74a4.2,4.2,0,0,0,.49.12c9.58,0,19.17,0,28.75,0,.81,0,1-.35,1.24-1,1.1-3.62,2.23-7.24,3.34-10.86a5.2,5.2,0,0,0,.14-.88l-.31-.18a4.36,4.36,0,0,0-.69.81c-.38.71-.65,1.47-1,2.18-2.55,4.75-6.32,7.43-11.93,7.15-2.6-.12-5.22,0-7.83,0-4.33,0-4.85-.52-4.85-4.93V11.79c-.46,0-.74-.06-1-.06l-11.66.09c-.1,0-.22,0-.29,0-.27.17-.52.37-.78.56.23.16.44.43.69.48.6.12,1.22.14,1.84.22A3.89,3.89,0,0,1,8,17.1Z"/><path class="cls-1" d="M10.49,74.38a15.68,15.68,0,0,0-3.58-1c-.06.71-.1,1-.1,1.26v7.11c1.84,0,3.67.57,4.74-1.36.86-1.54,0-2.68-.86-3.77C10.78,75.81,10.9,74.61,10.49,74.38Zm-3-.23a23.63,23.63,0,0,1,2.69.65c.14,0,.15,1.07,0,1.12a23.68,23.68,0,0,1-2.71.75ZM10.81,78a2.91,2.91,0,0,1,0,2.35c-.71,1.34-2.12.81-3.37.89V77.17C8.71,77.12,10.09,76.66,10.81,78Z"/><path class="cls-1" d="M28.78,75.26c-.68-1.39-2.08-1.88-4.16-1.46v7.9h.32c.06-.84.12-1.69.17-2.5,2.3-.7,2,2.21,3.76,2.6l-1.65-2.68C29,77.52,29.42,76.57,28.78,75.26Zm-3.67,3.15v-4c1.24-.19,2.46-.29,3,1a2.83,2.83,0,0,1-.07,2.1C27.46,78.69,26.26,78.45,25.11,78.41Z"/><path class="cls-1" d="M41.43,81.82l1.41-3.44a5.77,5.77,0,0,0,.83,0A1.85,1.85,0,0,1,46.15,80a9.44,9.44,0,0,0,.74,1.78l.42-.18-2.9-8-.49,0-2.94,8Zm2.71-7.14c.37.94.6,1.5.81,2.07.09.26.15.53.26.91H43.08C43.4,76.76,43.71,75.9,44.14,74.68Z"/><path class="cls-1" d="M61.17,81.16A7.27,7.27,0,0,1,59.59,80a1.71,1.71,0,0,0,1.52,1.71,3.48,3.48,0,0,0,2.44-.54C65,80,64.43,78,62.46,77c-.91-.45-2.23-.74-1.57-2.14s1.61-.4,2.53-.12c-.43-.53-1-1.14-1.47-1.09a2.33,2.33,0,0,0-1.62,1.1,1.92,1.92,0,0,0,.32,1.75,13.09,13.09,0,0,0,2.14,1.33,1.86,1.86,0,0,1,.71,2.59A1.74,1.74,0,0,1,61.17,81.16Z"/><path class="cls-1" d="M29.34,93.76a2.66,2.66,0,0,0-2.59,2.64,2.59,2.59,0,1,0,5.17,0A2.64,2.64,0,0,0,29.34,93.76Zm0,4.81a2.1,2.1,0,0,1-2.08-2.2,2,2,0,0,1,2.14-2.09,2.12,2.12,0,0,1,2.15,2.14A2.28,2.28,0,0,1,29.32,98.57Z"/><path class="cls-1" d="M73.32,93.76a2.66,2.66,0,0,0-2.69,2.53,2.58,2.58,0,1,0,5.16.21A2.64,2.64,0,0,0,73.32,93.76Zm-.12,4.81a2.09,2.09,0,0,1-2.08-2.2,2,2,0,0,1,2.14-2.09,2.13,2.13,0,0,1,2.15,2.15A2.29,2.29,0,0,1,73.2,98.57Z"/><path class="cls-1" d="M38.82,93.91v4.93c1.37.14,2.72.17,3.23-1.23A3.67,3.67,0,0,0,41.93,95C41.34,93.82,40.1,93.69,38.82,93.91Zm.47,4.51v-4c1.78-.1,2.63.56,2.63,2S41.13,98.45,39.29,98.42Z"/><path class="cls-1" d="M19.36,97.33c.12-.88.56-1.87.28-2.6-.38-1-1.48-1.1-2.48-.75v4.76l.22,0,.38-1.84,1.8,1.92.17-.15c-.27-.47-.54-.94-.82-1.41Zm-1.74-.59V94.41c1.06-.29,1.81.1,1.85,1.09S18.74,96.91,17.62,96.74Z"/><path class="cls-1" d="M90.71,73.79l-.33,0v7.8h3.44l0-.3-3.09-.16Z"/><path class="cls-1" d="M52.16,94a30.07,30.07,0,0,1,0,3.29,1.63,1.63,0,0,1-.84,1.12,1.31,1.31,0,0,1-1.2-.38,2.78,2.78,0,0,1-.32-1.46c0-.86,0-1.72,0-2.57l-.47,0c0,1.09-.05,2.17,0,3.25s.77,1.8,1.75,1.57a2.56,2.56,0,0,0,1.56-1.6,12.88,12.88,0,0,0,.07-3.23Z"/><path class="cls-1" d="M7.5,94v4.75l.22,0L8,97.34c1.78-.32,2.45-1,2.22-2.13S9.08,93.7,7.5,94Zm2.27,1.57c0,.52-.87,1-1.34,1.5L8,96.77c0-.75-.06-1.51-.1-2.35C9.06,94.12,9.82,94.59,9.77,95.56Z"/><path class="cls-1" d="M85.06,94.2l0-.26H82.68v4.84h2.23V98.6l-1.73-.17V96.64l1.74-.13v-.16l-1.76-.22V94.38Z"/><path class="cls-1" d="M77.08,81.68V73.79H76.8v7.88Z"/></g></g></svg>