<svg xmlns="http://www.w3.org/2000/svg" viewBox="0 0 74.52 100"><defs><style>.cls-1{fill:#fff;}.cls-2{fill:#523888;}</style></defs><title>rafael-borges</title><g id="Camada_2" data-name="Camada 2"><g id="Layer_1" data-name="Layer 1"><path class="cls-1" d="M40.18,25.27v17.4a20.14,20.14,0,0,1-3.09,40.05c-6.07,0-13.72-4.15-17.42-8.4.21,10.21.79,15.92-1.66,20.45A34.94,34.94,0,0,0,37.09,100a37.43,37.43,0,0,0,3.09-74.73"/><path class="cls-2" d="M17.28,86.44v-24A20.16,20.16,0,0,1,37.44,42.27h.07V25h-.07A37.44,37.44,0,0,0,0,62.43V99.86s7.37.59,12.06-2.81a13.46,13.46,0,0,0,5.22-10.61"/><path class="cls-1" d="M1.15,43.16V0S16.06,0,17.87,12.33c.1.71,0,12.77,0,12.77S8.81,28.25,1.15,43.16"/></g></g></svg>