<?xml version="1.0" standalone="no"?>
<!DOCTYPE svg PUBLIC "-//W3C//DTD SVG 20010904//EN"
 "http://www.w3.org/TR/2001/REC-SVG-20010904/DTD/svg10.dtd">
<svg version="1.0" xmlns="http://www.w3.org/2000/svg"
 width="800.000000pt" height="800.000000pt" viewBox="0 0 800.000000 800.000000"
 preserveAspectRatio="xMidYMid meet">
<metadata>
Created by potrace 1.11, written by Peter Selinger 2001-2013
</metadata>
<g transform="translate(0.000000,800.000000) scale(0.100000,-0.100000)"
fill="#000000" stroke="none">
<path d="M5040 5575 c-38 -57 -70 -109 -70 -115 0 -6 36 -10 93 -10 88 0 95 2
124 28 55 49 191 180 198 191 4 8 -38 11 -134 11 l-141 0 -70 -105z"/>
<path d="M394 5408 c-4 -6 0 -17 45 -120 12 -26 21 -54 21 -61 0 -8 -52 -146
-116 -308 -63 -162 -140 -357 -170 -434 -31 -77 -73 -185 -95 -239 -22 -54
-38 -105 -35 -113 3 -7 36 -56 73 -109 55 -76 69 -91 75 -77 5 10 44 106 87
213 l79 195 263 0 262 0 87 -210 87 -210 173 -3 c108 -1 176 1 180 8 3 5 6
230 5 500 0 269 2 490 6 490 6 0 177 -246 631 -907 l63 -92 83 -1 c58 0 82 4
84 13 3 28 6 1423 2 1437 -3 12 -23 15 -101 15 -55 0 -101 -4 -104 -10 -3 -5
-5 -234 -5 -508 1 -273 -1 -497 -4 -497 -3 1 -68 93 -145 205 -77 113 -174
254 -215 314 -41 59 -133 192 -203 295 -71 103 -137 190 -147 194 -11 4 -50 7
-87 7 l-68 0 -2 -600 c-1 -330 -2 -609 -3 -620 0 -11 -12 9 -27 45 -14 36 -31
79 -38 95 -7 17 -49 122 -93 235 -220 560 -334 846 -343 854 -10 11 -299 15
-305 4z m311 -579 c42 -123 80 -232 86 -242 7 -12 6 -19 -4 -22 -7 -3 -88 -4
-179 -3 l-166 3 84 235 c47 129 87 241 90 249 2 8 7 12 9 9 3 -2 39 -105 80
-229z"/>
<path d="M3651 5392 c-8 -3 -11 -228 -11 -733 l0 -729 105 0 105 0 2 367 3
368 130 -160 c191 -234 218 -267 349 -428 l119 -147 534 0 533 0 1 23 c1 27 1
133 0 167 l-1 25 -335 0 c-184 0 -335 2 -336 5 -5 25 -2 385 3 393 4 7 106 11
325 13 175 0 321 2 324 3 3 0 5 47 5 104 l-1 102 -329 5 -330 5 -1 185 c0 102
1 192 3 200 3 13 44 15 320 15 174 0 325 2 335 4 15 3 17 16 17 107 l0 104
-445 0 -445 0 0 -156 0 -157 -35 71 c-61 121 -191 218 -320 238 -49 7 -604 13
-624 6z m640 -240 c186 -82 187 -364 2 -452 -44 -21 -63 -23 -233 -25 -102 -1
-191 0 -197 3 -10 3 -13 62 -13 246 0 134 3 245 6 248 3 4 92 5 197 3 167 -2
198 -5 238 -23z m339 -739 c0 -340 -1 -356 -17 -337 -10 10 -65 75 -123 144
-57 69 -129 154 -158 189 l-54 64 59 22 c126 45 219 125 265 226 13 27 24 49
25 49 2 0 3 -161 3 -357z"/>
<path d="M2390 4661 l0 -731 308 0 c344 0 424 11 543 70 192 95 307 243 370
475 15 55 19 274 6 340 -50 259 -218 456 -462 542 l-80 28 -342 3 -343 3 0
-730z m675 495 c172 -50 303 -195 342 -378 8 -42 9 -194 1 -233 -28 -130 -113
-258 -216 -324 -96 -61 -165 -74 -387 -75 l-200 -1 -1 510 c-1 281 0 513 2
516 2 3 92 5 201 4 155 -1 211 -5 258 -19z"/>
<path d="M6141 3768 c11 -29 23 -63 26 -76 3 -12 9 -25 14 -28 5 -3 9 -14 9
-25 0 -18 -43 -139 -76 -214 -7 -16 -41 -102 -75 -190 -34 -88 -89 -227 -121
-310 -32 -82 -80 -203 -105 -267 l-46 -117 73 -101 c64 -89 90 -112 90 -79 0
15 151 382 162 394 9 10 502 15 517 6 4 -4 45 -96 90 -206 45 -110 86 -204 92
-210 13 -13 219 -14 219 0 0 10 -72 195 -406 1038 -85 213 -154 391 -154 396
0 5 -7 16 -15 24 -12 12 -46 16 -165 16 l-150 1 21 -52z m300 -544 c44 -131
81 -243 82 -248 1 -6 -70 -10 -174 -11 l-177 -1 48 136 c112 315 133 371 136
367 2 -2 40 -111 85 -243z"/>
<path d="M7355 3808 c-70 -7 -87 -10 -115 -20 -8 -3 -36 -13 -63 -23 -64 -23
-159 -94 -201 -152 -56 -76 -76 -148 -72 -257 2 -73 8 -103 29 -149 57 -126
196 -209 387 -232 25 -3 56 -7 70 -10 14 -2 50 -7 80 -10 191 -20 270 -73 270
-180 0 -66 -31 -122 -92 -168 -107 -79 -263 -92 -399 -34 -56 23 -117 84 -131
128 -6 21 -13 39 -16 39 -13 0 -172 -136 -172 -148 0 -46 117 -158 215 -207
94 -46 173 -63 281 -60 363 11 601 269 516 560 -27 95 -98 171 -204 220 -56
26 -190 60 -273 70 -117 13 -142 17 -180 26 -124 31 -182 100 -169 202 12 96
93 166 224 192 118 24 251 -12 321 -88 l37 -40 76 64 c42 35 76 69 76 76 0 18
-79 97 -125 125 -100 62 -236 90 -370 76z"/>
<path d="M5067 3804 c-1 -1 -21 -4 -45 -8 -111 -15 -229 -66 -325 -141 -167
-132 -279 -359 -280 -569 -1 -111 5 -176 15 -182 4 -3 6 -9 4 -13 -7 -11 37
-131 70 -191 15 -28 51 -79 81 -115 301 -365 861 -341 1123 48 37 56 85 158
95 204 3 18 7 36 8 40 1 5 -43 8 -99 9 l-101 0 -34 -70 c-40 -83 -128 -177
-205 -218 -137 -74 -323 -78 -462 -11 -85 41 -191 151 -235 244 -43 89 -56
158 -51 258 10 204 117 366 300 456 67 33 87 38 168 43 108 5 179 -8 265 -48
79 -38 165 -124 205 -205 16 -33 31 -62 33 -64 1 -2 41 22 88 54 l85 58 -38
71 c-81 156 -264 296 -435 333 -58 12 -221 24 -230 17z"/>
<path d="M2374 3789 c-2 -4 -1 -9 3 -11 5 -1 35 -37 68 -78 l60 -75 1 -546 0
-546 70 -99 69 -99 380 0 380 0 0 87 c0 49 3 88 6 88 3 0 18 -14 35 -31 45
-49 125 -96 211 -126 68 -23 94 -27 203 -27 93 0 140 5 185 18 192 59 322 188
350 348 8 46 9 1088 1 1096 -4 4 -52 7 -107 7 l-99 1 -1 -36 c0 -19 -1 -256
-1 -526 -1 -379 -4 -501 -14 -530 -18 -54 -88 -116 -159 -143 -177 -67 -379
-12 -453 124 -15 27 -17 88 -17 562 -1 293 -4 536 -9 540 -9 9 -346 12 -346 4
0 -3 29 -41 65 -83 l65 -76 1 -458 c1 -474 5 -528 45 -589 9 -13 14 -28 11
-32 -4 -6 -602 -9 -649 -4 -5 1 -8 278 -8 617 1 339 -2 619 -5 623 -9 9 -335
9 -341 0z"/>
</g>
</svg>
