<?xml version="1.0" standalone="no"?>
<!DOCTYPE svg PUBLIC "-//W3C//DTD SVG 20010904//EN"
 "http://www.w3.org/TR/2001/REC-SVG-20010904/DTD/svg10.dtd">
<svg version="1.0" xmlns="http://www.w3.org/2000/svg"
 width="512.000000pt" height="512.000000pt" viewBox="0 0 512.000000 512.000000"
 preserveAspectRatio="xMidYMid meet">
<metadata>
Created by potrace 1.11, written by Peter Selinger 2001-2013
</metadata>
<g transform="translate(0.000000,512.000000) scale(0.100000,-0.100000)"
fill="#000000" stroke="none">
<path d="M0 2560 l0 -2560 2560 0 2560 0 0 2560 0 2560 -2560 0 -2560 0 0
-2560z m4225 1766 c99 -26 155 -82 181 -181 20 -74 20 -3106 0 -3180 -26 -99
-82 -155 -181 -181 -74 -20 -3256 -20 -3330 0 -99 26 -155 82 -181 181 -20 74
-20 3106 0 3180 25 97 82 155 176 181 69 19 3264 19 3335 0z"/>
<path d="M950 2555 l0 -1535 1610 0 1610 0 0 1535 0 1535 -1610 0 -1610 0 0
-1535z m2108 18 c171 -445 315 -816 318 -825 6 -17 -6 -18 -162 -18 -150 0
-173 2 -201 20 -41 24 -46 36 -103 204 l-47 141 -315 3 -315 2 -52 -154 c-40
-118 -59 -160 -82 -182 l-30 -29 -180 -3 -179 -3 24 63 c59 156 609 1574 613
1581 2 4 93 7 202 7 l197 0 312 -807z"/>
<path d="M2437 2706 c-59 -176 -107 -327 -107 -333 0 -10 51 -13 221 -13 206
0 221 1 216 18 -7 25 -219 647 -221 648 0 1 -49 -143 -109 -320z"/>
</g>
</svg>
